# vtk DataFile Version 2.0
temperature
ASCII
DATASET UNSTRUCTURED_GRID
POINTS 190 float
0.000000 0.000000 0.0
0.000000 0.111111 0.0
0.000000 0.222222 0.0
0.000000 0.333333 0.0
0.000000 0.444444 0.0
0.000000 0.555556 0.0
0.000000 0.666667 0.0
0.000000 0.777778 0.0
0.000000 0.888889 0.0
0.000000 1.000000 0.0
0.111111 0.000000 0.0
0.111111 0.111111 0.0
0.111111 0.222222 0.0
0.111111 0.333333 0.0
0.111111 0.444444 0.0
0.111111 0.555556 0.0
0.111111 0.666667 0.0
0.111111 0.777778 0.0
0.111111 0.888889 0.0
0.111111 1.000000 0.0
0.222222 0.000000 0.0
0.222222 0.111111 0.0
0.222222 0.222222 0.0
0.222222 0.333333 0.0
0.222222 0.444444 0.0
0.222222 0.555556 0.0
0.222222 0.666667 0.0
0.222222 0.777778 0.0
0.222222 0.888889 0.0
0.222222 1.000000 0.0
0.333333 0.000000 0.0
0.333333 0.111111 0.0
0.333333 0.222222 0.0
0.333333 0.333333 0.0
0.333333 0.444444 0.0
0.333333 0.555556 0.0
0.333333 0.666667 0.0
0.333333 0.777778 0.0
0.333333 0.888889 0.0
0.333333 1.000000 0.0
0.444444 0.000000 0.0
0.444444 0.111111 0.0
0.444444 0.222222 0.0
0.444444 0.333333 0.0
0.444444 0.444444 0.0
0.444444 0.555556 0.0
0.444444 0.666667 0.0
0.444444 0.777778 0.0
0.444444 0.888889 0.0
0.444444 1.000000 0.0
0.555556 0.000000 0.0
0.555556 0.111111 0.0
0.555556 0.222222 0.0
0.555556 0.333333 0.0
0.555556 0.444444 0.0
0.555556 0.555556 0.0
0.555556 0.666667 0.0
0.555556 0.777778 0.0
0.555556 0.888889 0.0
0.555556 1.000000 0.0
0.666667 0.000000 0.0
0.666667 0.111111 0.0
0.666667 0.222222 0.0
0.666667 0.333333 0.0
0.666667 0.444444 0.0
0.666667 0.555556 0.0
0.666667 0.666667 0.0
0.666667 0.777778 0.0
0.666667 0.888889 0.0
0.666667 1.000000 0.0
0.777778 0.000000 0.0
0.777778 0.111111 0.0
0.777778 0.222222 0.0
0.777778 0.333333 0.0
0.777778 0.444444 0.0
0.777778 0.555556 0.0
0.777778 0.666667 0.0
0.777778 0.777778 0.0
0.777778 0.888889 0.0
0.777778 1.000000 0.0
0.888889 0.000000 0.0
0.888889 0.111111 0.0
0.888889 0.222222 0.0
0.888889 0.333333 0.0
0.888889 0.444444 0.0
0.888889 0.555556 0.0
0.888889 0.666667 0.0
0.888889 0.777778 0.0
0.888889 0.888889 0.0
0.888889 1.000000 0.0
1.000000 0.000000 0.0
1.000000 0.111111 0.0
1.000000 0.222222 0.0
1.000000 0.333333 0.0
1.000000 0.444444 0.0
1.000000 0.555556 0.0
1.000000 0.666667 0.0
1.000000 0.777778 0.0
1.000000 0.888889 0.0
1.000000 1.000000 0.0
1.111111 0.000000 0.0
1.111111 0.111111 0.0
1.111111 0.222222 0.0
1.111111 0.333333 0.0
1.111111 0.444444 0.0
1.111111 0.555556 0.0
1.111111 0.666667 0.0
1.111111 0.777778 0.0
1.111111 0.888889 0.0
1.111111 1.000000 0.0
1.222222 0.000000 0.0
1.222222 0.111111 0.0
1.222222 0.222222 0.0
1.222222 0.333333 0.0
1.222222 0.444444 0.0
1.222222 0.555556 0.0
1.222222 0.666667 0.0
1.222222 0.777778 0.0
1.222222 0.888889 0.0
1.222222 1.000000 0.0
1.333333 0.000000 0.0
1.333333 0.111111 0.0
1.333333 0.222222 0.0
1.333333 0.333333 0.0
1.333333 0.444444 0.0
1.333333 0.555556 0.0
1.333333 0.666667 0.0
1.333333 0.777778 0.0
1.333333 0.888889 0.0
1.333333 1.000000 0.0
1.444444 0.000000 0.0
1.444444 0.111111 0.0
1.444444 0.222222 0.0
1.444444 0.333333 0.0
1.444444 0.444444 0.0
1.444444 0.555556 0.0
1.444444 0.666667 0.0
1.444444 0.777778 0.0
1.444444 0.888889 0.0
1.444444 1.000000 0.0
1.555556 0.000000 0.0
1.555556 0.111111 0.0
1.555556 0.222222 0.0
1.555556 0.333333 0.0
1.555556 0.444444 0.0
1.555556 0.555556 0.0
1.555556 0.666667 0.0
1.555556 0.777778 0.0
1.555556 0.888889 0.0
1.555556 1.000000 0.0
1.666667 0.000000 0.0
1.666667 0.111111 0.0
1.666667 0.222222 0.0
1.666667 0.333333 0.0
1.666667 0.444444 0.0
1.666667 0.555556 0.0
1.666667 0.666667 0.0
1.666667 0.777778 0.0
1.666667 0.888889 0.0
1.666667 1.000000 0.0
1.777778 0.000000 0.0
1.777778 0.111111 0.0
1.777778 0.222222 0.0
1.777778 0.333333 0.0
1.777778 0.444444 0.0
1.777778 0.555556 0.0
1.777778 0.666667 0.0
1.777778 0.777778 0.0
1.777778 0.888889 0.0
1.777778 1.000000 0.0
1.888889 0.000000 0.0
1.888889 0.111111 0.0
1.888889 0.222222 0.0
1.888889 0.333333 0.0
1.888889 0.444444 0.0
1.888889 0.555556 0.0
1.888889 0.666667 0.0
1.888889 0.777778 0.0
1.888889 0.888889 0.0
1.888889 1.000000 0.0
2.000000 0.000000 0.0
2.000000 0.111111 0.0
2.000000 0.222222 0.0
2.000000 0.333333 0.0
2.000000 0.444444 0.0
2.000000 0.555556 0.0
2.000000 0.666667 0.0
2.000000 0.777778 0.0
2.000000 0.888889 0.0
2.000000 1.000000 0.0
CELLS 324 1296
3 0 10 1
3 1 10 11
3 1 11 2
3 2 11 12
3 2 12 3
3 3 12 13
3 3 13 4
3 4 13 14
3 4 14 5
3 5 14 15
3 5 15 6
3 6 15 16
3 6 16 7
3 7 16 17
3 7 17 8
3 8 17 18
3 8 18 9
3 9 18 19
3 10 20 11
3 11 20 21
3 11 21 12
3 12 21 22
3 12 22 13
3 13 22 23
3 13 23 14
3 14 23 24
3 14 24 15
3 15 24 25
3 15 25 16
3 16 25 26
3 16 26 17
3 17 26 27
3 17 27 18
3 18 27 28
3 18 28 19
3 19 28 29
3 20 30 21
3 21 30 31
3 21 31 22
3 22 31 32
3 22 32 23
3 23 32 33
3 23 33 24
3 24 33 34
3 24 34 25
3 25 34 35
3 25 35 26
3 26 35 36
3 26 36 27
3 27 36 37
3 27 37 28
3 28 37 38
3 28 38 29
3 29 38 39
3 30 40 31
3 31 40 41
3 31 41 32
3 32 41 42
3 32 42 33
3 33 42 43
3 33 43 34
3 34 43 44
3 34 44 35
3 35 44 45
3 35 45 36
3 36 45 46
3 36 46 37
3 37 46 47
3 37 47 38
3 38 47 48
3 38 48 39
3 39 48 49
3 40 50 41
3 41 50 51
3 41 51 42
3 42 51 52
3 42 52 43
3 43 52 53
3 43 53 44
3 44 53 54
3 44 54 45
3 45 54 55
3 45 55 46
3 46 55 56
3 46 56 47
3 47 56 57
3 47 57 48
3 48 57 58
3 48 58 49
3 49 58 59
3 50 60 51
3 51 60 61
3 51 61 52
3 52 61 62
3 52 62 53
3 53 62 63
3 53 63 54
3 54 63 64
3 54 64 55
3 55 64 65
3 55 65 56
3 56 65 66
3 56 66 57
3 57 66 67
3 57 67 58
3 58 67 68
3 58 68 59
3 59 68 69
3 60 70 61
3 61 70 71
3 61 71 62
3 62 71 72
3 62 72 63
3 63 72 73
3 63 73 64
3 64 73 74
3 64 74 65
3 65 74 75
3 65 75 66
3 66 75 76
3 66 76 67
3 67 76 77
3 67 77 68
3 68 77 78
3 68 78 69
3 69 78 79
3 70 80 71
3 71 80 81
3 71 81 72
3 72 81 82
3 72 82 73
3 73 82 83
3 73 83 74
3 74 83 84
3 74 84 75
3 75 84 85
3 75 85 76
3 76 85 86
3 76 86 77
3 77 86 87
3 77 87 78
3 78 87 88
3 78 88 79
3 79 88 89
3 80 90 81
3 81 90 91
3 81 91 82
3 82 91 92
3 82 92 83
3 83 92 93
3 83 93 84
3 84 93 94
3 84 94 85
3 85 94 95
3 85 95 86
3 86 95 96
3 86 96 87
3 87 96 97
3 87 97 88
3 88 97 98
3 88 98 89
3 89 98 99
3 90 100 91
3 91 100 101
3 91 101 92
3 92 101 102
3 92 102 93
3 93 102 103
3 93 103 94
3 94 103 104
3 94 104 95
3 95 104 105
3 95 105 96
3 96 105 106
3 96 106 97
3 97 106 107
3 97 107 98
3 98 107 108
3 98 108 99
3 99 108 109
3 100 110 101
3 101 110 111
3 101 111 102
3 102 111 112
3 102 112 103
3 103 112 113
3 103 113 104
3 104 113 114
3 104 114 105
3 105 114 115
3 105 115 106
3 106 115 116
3 106 116 107
3 107 116 117
3 107 117 108
3 108 117 118
3 108 118 109
3 109 118 119
3 110 120 111
3 111 120 121
3 111 121 112
3 112 121 122
3 112 122 113
3 113 122 123
3 113 123 114
3 114 123 124
3 114 124 115
3 115 124 125
3 115 125 116
3 116 125 126
3 116 126 117
3 117 126 127
3 117 127 118
3 118 127 128
3 118 128 119
3 119 128 129
3 120 130 121
3 121 130 131
3 121 131 122
3 122 131 132
3 122 132 123
3 123 132 133
3 123 133 124
3 124 133 134
3 124 134 125
3 125 134 135
3 125 135 126
3 126 135 136
3 126 136 127
3 127 136 137
3 127 137 128
3 128 137 138
3 128 138 129
3 129 138 139
3 130 140 131
3 131 140 141
3 131 141 132
3 132 141 142
3 132 142 133
3 133 142 143
3 133 143 134
3 134 143 144
3 134 144 135
3 135 144 145
3 135 145 136
3 136 145 146
3 136 146 137
3 137 146 147
3 137 147 138
3 138 147 148
3 138 148 139
3 139 148 149
3 140 150 141
3 141 150 151
3 141 151 142
3 142 151 152
3 142 152 143
3 143 152 153
3 143 153 144
3 144 153 154
3 144 154 145
3 145 154 155
3 145 155 146
3 146 155 156
3 146 156 147
3 147 156 157
3 147 157 148
3 148 157 158
3 148 158 149
3 149 158 159
3 150 160 151
3 151 160 161
3 151 161 152
3 152 161 162
3 152 162 153
3 153 162 163
3 153 163 154
3 154 163 164
3 154 164 155
3 155 164 165
3 155 165 156
3 156 165 166
3 156 166 157
3 157 166 167
3 157 167 158
3 158 167 168
3 158 168 159
3 159 168 169
3 160 170 161
3 161 170 171
3 161 171 162
3 162 171 172
3 162 172 163
3 163 172 173
3 163 173 164
3 164 173 174
3 164 174 165
3 165 174 175
3 165 175 166
3 166 175 176
3 166 176 167
3 167 176 177
3 167 177 168
3 168 177 178
3 168 178 169
3 169 178 179
3 170 180 171
3 171 180 181
3 171 181 172
3 172 181 182
3 172 182 173
3 173 182 183
3 173 183 174
3 174 183 184
3 174 184 175
3 175 184 185
3 175 185 176
3 176 185 186
3 176 186 177
3 177 186 187
3 177 187 178
3 178 187 188
3 178 188 179
3 179 188 189
CELL_TYPES 324
5
5
5
5
5
5
5
5
5
5
5
5
5
5
5
5
5
5
5
5
5
5
5
5
5
5
5
5
5
5
5
5
5
5
5
5
5
5
5
5
5
5
5
5
5
5
5
5
5
5
5
5
5
5
5
5
5
5
5
5
5
5
5
5
5
5
5
5
5
5
5
5
5
5
5
5
5
5
5
5
5
5
5
5
5
5
5
5
5
5
5
5
5
5
5
5
5
5
5
5
5
5
5
5
5
5
5
5
5
5
5
5
5
5
5
5
5
5
5
5
5
5
5
5
5
5
5
5
5
5
5
5
5
5
5
5
5
5
5
5
5
5
5
5
5
5
5
5
5
5
5
5
5
5
5
5
5
5
5
5
5
5
5
5
5
5
5
5
5
5
5
5
5
5
5
5
5
5
5
5
5
5
5
5
5
5
5
5
5
5
5
5
5
5
5
5
5
5
5
5
5
5
5
5
5
5
5
5
5
5
5
5
5
5
5
5
5
5
5
5
5
5
5
5
5
5
5
5
5
5
5
5
5
5
5
5
5
5
5
5
5
5
5
5
5
5
5
5
5
5
5
5
5
5
5
5
5
5
5
5
5
5
5
5
5
5
5
5
5
5
5
5
5
5
5
5
5
5
5
5
5
5
5
5
5
5
5
5
5
5
5
5
5
5
5
5
5
5
5
5
5
5
5
5
5
5
5
5
5
5
5
5
5
5
5
5
5
5
5
5
5
5
5
5
POINT_DATA 190
SCALARS point_scalars float
LOOKUP_TABLE default
50.000000
50.000000
50.000000
50.000000
50.000000
50.000000
50.000000
50.000000
50.000000
50.000000
0.000000
24.908803
34.800417
39.726391
43.108421
46.523631
51.123360
58.370637
71.440071
100.000000
0.000000
15.016915
24.974461
31.688868
37.184018
43.110364
50.919885
62.046208
78.043618
100.000000
0.000000
10.494652
19.099968
26.096217
32.627916
40.083441
49.820072
62.925969
79.895399
100.000000
0.000000
8.218852
15.679818
22.483691
29.434203
37.712664
48.521574
62.680876
80.211521
100.000000
0.000000
7.031471
13.748490
20.300126
27.382936
36.065832
47.441303
62.176281
80.096488
100.000000
0.000000
6.419938
12.709046
19.072028
26.178515
35.045892
46.706263
61.750582
79.924663
100.000000
0.000000
6.123530
12.192593
18.444833
25.545750
34.491592
46.285924
61.485378
79.803218
100.000000
0.000000
6.006198
11.986160
18.191673
25.288302
34.264433
46.111909
61.373607
79.750712
100.000000
0.000000
6.011903
11.999130
18.213630
25.319734
34.303593
46.153969
61.410434
79.772618
100.000000
0.000000
6.152148
12.255313
18.546777
25.686719
34.662849
46.467013
61.642760
79.896661
100.000000
0.000000
6.514229
12.910392
19.388258
26.601828
35.547670
47.229349
62.203177
80.193917
100.000000
0.000000
7.288938
14.294825
21.142637
28.487457
37.354834
48.776871
63.336361
80.793664
100.000000
0.000000
8.821429
16.977401
24.472240
32.007743
40.690639
51.613417
65.405192
81.886445
100.000000
0.000000
11.708231
21.847110
30.319076
38.041376
46.319837
56.356958
68.848167
83.700900
100.000000
0.000000
17.040931
30.236707
39.859575
47.539754
54.995279
63.583430
74.062709
86.441677
100.000000
0.000000
27.167710
44.151389
54.341529
61.229595
67.155941
73.572546
81.223136
90.194413
100.000000
0.000000
48.303499
66.530683
74.641217
79.142406
82.557616
86.038187
90.100902
94.834767
100.000000
0.000000
100.000000
100.000000
100.000000
100.000000
100.000000
100.000000
100.000000
100.000000
100.000000
CELL_DATA 324
