# vtk DataFile Version 2.0
temperature
ASCII
DATASET UNSTRUCTURED_GRID
POINTS 190 float
0.000000 0.000000 0.0
0.000000 0.111111 0.0
0.000000 0.222222 0.0
0.000000 0.333333 0.0
0.000000 0.444444 0.0
0.000000 0.555556 0.0
0.000000 0.666667 0.0
0.000000 0.777778 0.0
0.000000 0.888889 0.0
0.000000 1.000000 0.0
0.111111 0.000000 0.0
0.111111 0.111111 0.0
0.111111 0.222222 0.0
0.111111 0.333333 0.0
0.111111 0.444444 0.0
0.111111 0.555556 0.0
0.111111 0.666667 0.0
0.111111 0.777778 0.0
0.111111 0.888889 0.0
0.111111 1.000000 0.0
0.222222 0.000000 0.0
0.222222 0.111111 0.0
0.222222 0.222222 0.0
0.222222 0.333333 0.0
0.222222 0.444444 0.0
0.222222 0.555556 0.0
0.222222 0.666667 0.0
0.222222 0.777778 0.0
0.222222 0.888889 0.0
0.222222 1.000000 0.0
0.333333 0.000000 0.0
0.333333 0.111111 0.0
0.333333 0.222222 0.0
0.333333 0.333333 0.0
0.333333 0.444444 0.0
0.333333 0.555556 0.0
0.333333 0.666667 0.0
0.333333 0.777778 0.0
0.333333 0.888889 0.0
0.333333 1.000000 0.0
0.444444 0.000000 0.0
0.444444 0.111111 0.0
0.444444 0.222222 0.0
0.444444 0.333333 0.0
0.444444 0.444444 0.0
0.444444 0.555556 0.0
0.444444 0.666667 0.0
0.444444 0.777778 0.0
0.444444 0.888889 0.0
0.444444 1.000000 0.0
0.555556 0.000000 0.0
0.555556 0.111111 0.0
0.555556 0.222222 0.0
0.555556 0.333333 0.0
0.555556 0.444444 0.0
0.555556 0.555556 0.0
0.555556 0.666667 0.0
0.555556 0.777778 0.0
0.555556 0.888889 0.0
0.555556 1.000000 0.0
0.666667 0.000000 0.0
0.666667 0.111111 0.0
0.666667 0.222222 0.0
0.666667 0.333333 0.0
0.666667 0.444444 0.0
0.666667 0.555556 0.0
0.666667 0.666667 0.0
0.666667 0.777778 0.0
0.666667 0.888889 0.0
0.666667 1.000000 0.0
0.777778 0.000000 0.0
0.777778 0.111111 0.0
0.777778 0.222222 0.0
0.777778 0.333333 0.0
0.777778 0.444444 0.0
0.777778 0.555556 0.0
0.777778 0.666667 0.0
0.777778 0.777778 0.0
0.777778 0.888889 0.0
0.777778 1.000000 0.0
0.888889 0.000000 0.0
0.888889 0.111111 0.0
0.888889 0.222222 0.0
0.888889 0.333333 0.0
0.888889 0.444444 0.0
0.888889 0.555556 0.0
0.888889 0.666667 0.0
0.888889 0.777778 0.0
0.888889 0.888889 0.0
0.888889 1.000000 0.0
1.000000 0.000000 0.0
1.000000 0.111111 0.0
1.000000 0.222222 0.0
1.000000 0.333333 0.0
1.000000 0.444444 0.0
1.000000 0.555556 0.0
1.000000 0.666667 0.0
1.000000 0.777778 0.0
1.000000 0.888889 0.0
1.000000 1.000000 0.0
1.111111 0.000000 0.0
1.111111 0.111111 0.0
1.111111 0.222222 0.0
1.111111 0.333333 0.0
1.111111 0.444444 0.0
1.111111 0.555556 0.0
1.111111 0.666667 0.0
1.111111 0.777778 0.0
1.111111 0.888889 0.0
1.111111 1.000000 0.0
1.222222 0.000000 0.0
1.222222 0.111111 0.0
1.222222 0.222222 0.0
1.222222 0.333333 0.0
1.222222 0.444444 0.0
1.222222 0.555556 0.0
1.222222 0.666667 0.0
1.222222 0.777778 0.0
1.222222 0.888889 0.0
1.222222 1.000000 0.0
1.333333 0.000000 0.0
1.333333 0.111111 0.0
1.333333 0.222222 0.0
1.333333 0.333333 0.0
1.333333 0.444444 0.0
1.333333 0.555556 0.0
1.333333 0.666667 0.0
1.333333 0.777778 0.0
1.333333 0.888889 0.0
1.333333 1.000000 0.0
1.444444 0.000000 0.0
1.444444 0.111111 0.0
1.444444 0.222222 0.0
1.444444 0.333333 0.0
1.444444 0.444444 0.0
1.444444 0.555556 0.0
1.444444 0.666667 0.0
1.444444 0.777778 0.0
1.444444 0.888889 0.0
1.444444 1.000000 0.0
1.555556 0.000000 0.0
1.555556 0.111111 0.0
1.555556 0.222222 0.0
1.555556 0.333333 0.0
1.555556 0.444444 0.0
1.555556 0.555556 0.0
1.555556 0.666667 0.0
1.555556 0.777778 0.0
1.555556 0.888889 0.0
1.555556 1.000000 0.0
1.666667 0.000000 0.0
1.666667 0.111111 0.0
1.666667 0.222222 0.0
1.666667 0.333333 0.0
1.666667 0.444444 0.0
1.666667 0.555556 0.0
1.666667 0.666667 0.0
1.666667 0.777778 0.0
1.666667 0.888889 0.0
1.666667 1.000000 0.0
1.777778 0.000000 0.0
1.777778 0.111111 0.0
1.777778 0.222222 0.0
1.777778 0.333333 0.0
1.777778 0.444444 0.0
1.777778 0.555556 0.0
1.777778 0.666667 0.0
1.777778 0.777778 0.0
1.777778 0.888889 0.0
1.777778 1.000000 0.0
1.888889 0.000000 0.0
1.888889 0.111111 0.0
1.888889 0.222222 0.0
1.888889 0.333333 0.0
1.888889 0.444444 0.0
1.888889 0.555556 0.0
1.888889 0.666667 0.0
1.888889 0.777778 0.0
1.888889 0.888889 0.0
1.888889 1.000000 0.0
2.000000 0.000000 0.0
2.000000 0.111111 0.0
2.000000 0.222222 0.0
2.000000 0.333333 0.0
2.000000 0.444444 0.0
2.000000 0.555556 0.0
2.000000 0.666667 0.0
2.000000 0.777778 0.0
2.000000 0.888889 0.0
2.000000 1.000000 0.0
CELLS 324 1296
3 0 10 1
3 1 10 11
3 1 11 2
3 2 11 12
3 2 12 3
3 3 12 13
3 3 13 4
3 4 13 14
3 4 14 5
3 5 14 15
3 5 15 6
3 6 15 16
3 6 16 7
3 7 16 17
3 7 17 8
3 8 17 18
3 8 18 9
3 9 18 19
3 10 20 11
3 11 20 21
3 11 21 12
3 12 21 22
3 12 22 13
3 13 22 23
3 13 23 14
3 14 23 24
3 14 24 15
3 15 24 25
3 15 25 16
3 16 25 26
3 16 26 17
3 17 26 27
3 17 27 18
3 18 27 28
3 18 28 19
3 19 28 29
3 20 30 21
3 21 30 31
3 21 31 22
3 22 31 32
3 22 32 23
3 23 32 33
3 23 33 24
3 24 33 34
3 24 34 25
3 25 34 35
3 25 35 26
3 26 35 36
3 26 36 27
3 27 36 37
3 27 37 28
3 28 37 38
3 28 38 29
3 29 38 39
3 30 40 31
3 31 40 41
3 31 41 32
3 32 41 42
3 32 42 33
3 33 42 43
3 33 43 34
3 34 43 44
3 34 44 35
3 35 44 45
3 35 45 36
3 36 45 46
3 36 46 37
3 37 46 47
3 37 47 38
3 38 47 48
3 38 48 39
3 39 48 49
3 40 50 41
3 41 50 51
3 41 51 42
3 42 51 52
3 42 52 43
3 43 52 53
3 43 53 44
3 44 53 54
3 44 54 45
3 45 54 55
3 45 55 46
3 46 55 56
3 46 56 47
3 47 56 57
3 47 57 48
3 48 57 58
3 48 58 49
3 49 58 59
3 50 60 51
3 51 60 61
3 51 61 52
3 52 61 62
3 52 62 53
3 53 62 63
3 53 63 54
3 54 63 64
3 54 64 55
3 55 64 65
3 55 65 56
3 56 65 66
3 56 66 57
3 57 66 67
3 57 67 58
3 58 67 68
3 58 68 59
3 59 68 69
3 60 70 61
3 61 70 71
3 61 71 62
3 62 71 72
3 62 72 63
3 63 72 73
3 63 73 64
3 64 73 74
3 64 74 65
3 65 74 75
3 65 75 66
3 66 75 76
3 66 76 67
3 67 76 77
3 67 77 68
3 68 77 78
3 68 78 69
3 69 78 79
3 70 80 71
3 71 80 81
3 71 81 72
3 72 81 82
3 72 82 73
3 73 82 83
3 73 83 74
3 74 83 84
3 74 84 75
3 75 84 85
3 75 85 76
3 76 85 86
3 76 86 77
3 77 86 87
3 77 87 78
3 78 87 88
3 78 88 79
3 79 88 89
3 80 90 81
3 81 90 91
3 81 91 82
3 82 91 92
3 82 92 83
3 83 92 93
3 83 93 84
3 84 93 94
3 84 94 85
3 85 94 95
3 85 95 86
3 86 95 96
3 86 96 87
3 87 96 97
3 87 97 88
3 88 97 98
3 88 98 89
3 89 98 99
3 90 100 91
3 91 100 101
3 91 101 92
3 92 101 102
3 92 102 93
3 93 102 103
3 93 103 94
3 94 103 104
3 94 104 95
3 95 104 105
3 95 105 96
3 96 105 106
3 96 106 97
3 97 106 107
3 97 107 98
3 98 107 108
3 98 108 99
3 99 108 109
3 100 110 101
3 101 110 111
3 101 111 102
3 102 111 112
3 102 112 103
3 103 112 113
3 103 113 104
3 104 113 114
3 104 114 105
3 105 114 115
3 105 115 106
3 106 115 116
3 106 116 107
3 107 116 117
3 107 117 108
3 108 117 118
3 108 118 109
3 109 118 119
3 110 120 111
3 111 120 121
3 111 121 112
3 112 121 122
3 112 122 113
3 113 122 123
3 113 123 114
3 114 123 124
3 114 124 115
3 115 124 125
3 115 125 116
3 116 125 126
3 116 126 117
3 117 126 127
3 117 127 118
3 118 127 128
3 118 128 119
3 119 128 129
3 120 130 121
3 121 130 131
3 121 131 122
3 122 131 132
3 122 132 123
3 123 132 133
3 123 133 124
3 124 133 134
3 124 134 125
3 125 134 135
3 125 135 126
3 126 135 136
3 126 136 127
3 127 136 137
3 127 137 128
3 128 137 138
3 128 138 129
3 129 138 139
3 130 140 131
3 131 140 141
3 131 141 132
3 132 141 142
3 132 142 133
3 133 142 143
3 133 143 134
3 134 143 144
3 134 144 135
3 135 144 145
3 135 145 136
3 136 145 146
3 136 146 137
3 137 146 147
3 137 147 138
3 138 147 148
3 138 148 139
3 139 148 149
3 140 150 141
3 141 150 151
3 141 151 142
3 142 151 152
3 142 152 143
3 143 152 153
3 143 153 144
3 144 153 154
3 144 154 145
3 145 154 155
3 145 155 146
3 146 155 156
3 146 156 147
3 147 156 157
3 147 157 148
3 148 157 158
3 148 158 149
3 149 158 159
3 150 160 151
3 151 160 161
3 151 161 152
3 152 161 162
3 152 162 153
3 153 162 163
3 153 163 154
3 154 163 164
3 154 164 155
3 155 164 165
3 155 165 156
3 156 165 166
3 156 166 157
3 157 166 167
3 157 167 158
3 158 167 168
3 158 168 159
3 159 168 169
3 160 170 161
3 161 170 171
3 161 171 162
3 162 171 172
3 162 172 163
3 163 172 173
3 163 173 164
3 164 173 174
3 164 174 165
3 165 174 175
3 165 175 166
3 166 175 176
3 166 176 167
3 167 176 177
3 167 177 168
3 168 177 178
3 168 178 169
3 169 178 179
3 170 180 171
3 171 180 181
3 171 181 172
3 172 181 182
3 172 182 173
3 173 182 183
3 173 183 174
3 174 183 184
3 174 184 175
3 175 184 185
3 175 185 176
3 176 185 186
3 176 186 177
3 177 186 187
3 177 187 178
3 178 187 188
3 178 188 179
3 179 188 189
CELL_TYPES 324
5
5
5
5
5
5
5
5
5
5
5
5
5
5
5
5
5
5
5
5
5
5
5
5
5
5
5
5
5
5
5
5
5
5
5
5
5
5
5
5
5
5
5
5
5
5
5
5
5
5
5
5
5
5
5
5
5
5
5
5
5
5
5
5
5
5
5
5
5
5
5
5
5
5
5
5
5
5
5
5
5
5
5
5
5
5
5
5
5
5
5
5
5
5
5
5
5
5
5
5
5
5
5
5
5
5
5
5
5
5
5
5
5
5
5
5
5
5
5
5
5
5
5
5
5
5
5
5
5
5
5
5
5
5
5
5
5
5
5
5
5
5
5
5
5
5
5
5
5
5
5
5
5
5
5
5
5
5
5
5
5
5
5
5
5
5
5
5
5
5
5
5
5
5
5
5
5
5
5
5
5
5
5
5
5
5
5
5
5
5
5
5
5
5
5
5
5
5
5
5
5
5
5
5
5
5
5
5
5
5
5
5
5
5
5
5
5
5
5
5
5
5
5
5
5
5
5
5
5
5
5
5
5
5
5
5
5
5
5
5
5
5
5
5
5
5
5
5
5
5
5
5
5
5
5
5
5
5
5
5
5
5
5
5
5
5
5
5
5
5
5
5
5
5
5
5
5
5
5
5
5
5
5
5
5
5
5
5
5
5
5
5
5
5
5
5
5
5
5
5
5
5
5
5
5
5
5
5
5
5
5
5
5
5
5
5
5
5
5
5
5
5
5
5
POINT_DATA 190
SCALARS point_scalars float
LOOKUP_TABLE default
50.000000
50.000000
50.000000
50.000000
50.000000
50.000000
50.000000
50.000000
50.000000
50.000000
0.000000
26.315991
37.579484
43.755203
48.101205
51.973210
56.310239
62.469091
73.709856
100.000000
0.000000
17.687070
30.251606
39.346676
46.683862
53.488848
60.805209
69.861134
82.372920
100.000000
0.000000
14.185787
26.402784
36.708957
45.813414
54.507808
63.573536
73.806908
85.925796
100.000000
0.000000
12.660769
24.478830
35.291878
45.374546
55.176953
65.193143
75.881213
87.530828
100.000000
0.000000
11.988090
23.577986
34.629565
45.243667
55.660045
66.165254
77.012073
88.325932
100.000000
0.000000
11.725114
23.237089
34.433870
45.343654
56.087446
66.824899
77.697525
88.772336
100.000000
0.000000
11.688331
23.235923
34.558230
45.647224
56.558777
67.382430
78.205330
89.078942
100.000000
0.000000
11.806505
23.486767
34.951908
46.169180
57.158951
67.976720
78.689147
89.352322
100.000000
0.000000
12.065884
23.980853
35.631341
46.961722
57.974209
68.714239
79.250337
89.656164
100.000000
0.000000
12.491437
24.768095
36.669514
48.116090
59.105860
69.694326
79.970474
90.037255
100.000000
0.000000
13.146860
25.958936
38.200744
49.770716
60.682269
71.024943
80.928342
90.537472
100.000000
0.000000
14.151528
27.747220
40.440422
52.125400
62.869192
72.831451
82.207656
91.198750
100.000000
0.000000
15.725412
30.463140
43.722204
55.459796
65.876174
75.257893
83.897227
92.063254
100.000000
0.000000
18.298857
34.680047
48.555534
60.149610
69.952017
78.456799
86.082431
93.168916
100.000000
0.000000
22.799969
41.421449
55.695594
66.659882
75.354277
82.560173
88.825574
94.539977
100.000000
0.000000
31.487366
52.524842
66.165257
75.462502
82.267488
87.623789
92.134370
96.173216
100.000000
0.000000
50.629997
71.035339
80.991621
86.772768
90.644773
93.546657
95.924946
98.023861
100.000000
0.000000
100.000000
100.000000
100.000000
100.000000
100.000000
100.000000
100.000000
100.000000
100.000000
CELL_DATA 324
